<?xml version="1.0" encoding="UTF-8" standalone="no"?><!-- Generator: Gravit.io --><svg xmlns="http://www.w3.org/2000/svg" xmlns:xlink="http://www.w3.org/1999/xlink" style="isolation:isolate" viewBox="0 0 162.1 187" width="162.1pt" height="187pt"><defs><clipPath id="_clipPath_IK6pPu1Dyo1BCQuk2Clmw5HQI3kb2wMN"><rect width="162.1" height="187"/></clipPath></defs><g clip-path="url(#_clipPath_IK6pPu1Dyo1BCQuk2Clmw5HQI3kb2wMN)"><path d=" M 40.586 70.138 L 60.833 58.448 L 81.08 46.759 L 101.327 58.448 L 121.574 70.138 L 121.574 93.517 L 121.574 116.897 L 101.327 128.586 L 81.08 140.276 L 60.833 128.586 L 40.586 116.897 L 40.586 93.517 L 40.586 70.138 Z  M 0.092 46.759 L 40.586 23.379 L 81.08 0 L 121.574 23.379 L 162.068 46.759 L 162.068 93.517 L 162.068 140.276 L 121.574 163.655 L 81.08 187.035 L 40.586 163.655 L 0.092 140.276 L 0.092 93.517 L 0.092 46.759 Z  M 8.584 51.665 L 44.832 30.73 L 81.079 9.804 L 117.327 30.73 L 153.575 51.665 L 153.575 93.519 L 153.575 135.372 L 117.327 156.299 L 81.079 177.225 L 44.832 156.299 L 8.584 135.372 L 8.584 93.519 L 8.584 51.665 Z " fill-rule="evenodd" fill="rgb(255,113,113)"/><path d=" M 161.83 46.929 L 161.83 93.517 L 161.83 140.276 L 121.335 163.655 L 80.841 187.035 L 40.347 163.655 L 0 140.361 L 8.493 135.457 L 44.594 156.299 L 80.842 177.225 L 117.09 156.299 L 153.338 135.372 L 153.338 93.519 L 153.338 51.832 L 161.83 46.929 Z  M 121.335 70.308 L 121.335 93.517 L 121.335 116.897 L 101.088 128.586 L 80.841 140.276 L 60.594 128.586 L 40.494 116.982 L 121.335 70.308 Z " fill-rule="evenodd" fill="rgb(70,70,70)"/></g></svg>