<?xml version="1.0" encoding="UTF-8" standalone="no"?><!-- Generator: Gravit.io --><svg xmlns="http://www.w3.org/2000/svg" xmlns:xlink="http://www.w3.org/1999/xlink" style="isolation:isolate" viewBox="0 0 597.3 187" width="597.3pt" height="187pt"><defs><clipPath id="_clipPath_IESilzINWPh67X4VXCMzqWLuLiyRhe4Z"><rect width="597.3" height="187"/></clipPath></defs><g clip-path="url(#_clipPath_IESilzINWPh67X4VXCMzqWLuLiyRhe4Z)"><path d=" M 227.858 59.352 L 241.486 59.352 L 241.486 127.107 L 227.858 127.107 L 227.858 97.644 L 198.875 97.644 L 198.875 127.107 L 185.344 127.107 L 185.344 59.352 L 198.875 59.352 L 198.875 86.799 L 227.858 86.799 L 227.858 59.352 Z  M 248.67 73.939 L 263.737 73.939 L 278.228 110.024 L 291.664 73.939 L 306.54 73.939 L 274.006 152.443 L 259.034 152.443 L 271.031 125.571 L 248.67 73.939 Z  M 345.489 73.268 L 345.489 73.268 Q 352.207 73.268 357.582 76.531 L 357.582 76.531 L 357.582 76.531 Q 362.956 79.794 365.979 85.984 L 365.979 85.984 L 365.979 85.984 Q 369.002 92.174 369.002 100.523 L 369.002 100.523 L 369.002 100.523 Q 369.002 108.873 365.979 115.063 L 365.979 115.063 L 365.979 115.063 Q 362.956 121.253 357.582 124.516 L 357.582 124.516 L 357.582 124.516 Q 352.207 127.779 345.489 127.779 L 345.489 127.779 L 345.489 127.779 Q 338.771 127.779 334.021 124.564 L 334.021 124.564 L 334.021 124.564 Q 329.27 121.349 327.255 115.974 L 327.255 115.974 L 327.255 152.443 L 313.723 152.443 L 313.723 73.939 L 327.255 73.939 L 327.255 84.976 L 327.255 84.976 Q 329.27 79.602 334.021 76.435 L 334.021 76.435 L 334.021 76.435 Q 338.771 73.268 345.489 73.268 L 345.489 73.268 Z  M 341.267 85.072 L 341.267 85.072 Q 335.124 85.072 331.142 89.247 L 331.142 89.247 L 331.142 89.247 Q 327.159 93.421 327.159 100.523 L 327.159 100.523 L 327.159 100.523 Q 327.159 107.529 331.142 111.704 L 331.142 111.704 L 331.142 111.704 Q 335.124 115.878 341.267 115.878 L 341.267 115.878 L 341.267 115.878 Q 347.601 115.878 351.439 111.8 L 351.439 111.8 L 351.439 111.8 Q 355.278 107.721 355.278 100.523 L 355.278 100.523 L 355.278 100.523 Q 355.278 93.325 351.439 89.199 L 351.439 89.199 L 351.439 89.199 Q 347.601 85.072 341.267 85.072 L 341.267 85.072 Z  M 429.449 98.508 L 429.449 98.508 Q 429.449 100.523 428.969 103.114 L 428.969 103.114 L 390.005 103.114 L 390.005 103.114 Q 390.293 110.216 393.844 113.575 L 393.844 113.575 L 393.844 113.575 Q 397.395 116.934 402.673 116.934 L 402.673 116.934 L 402.673 116.934 Q 407.376 116.934 410.495 114.631 L 410.495 114.631 L 410.495 114.631 Q 413.614 112.328 414.478 108.393 L 414.478 108.393 L 428.777 108.393 L 428.777 108.393 Q 427.722 113.959 424.267 118.374 L 424.267 118.374 L 424.267 118.374 Q 420.812 122.788 415.389 125.284 L 415.389 125.284 L 415.389 125.284 Q 409.967 127.779 403.345 127.779 L 403.345 127.779 L 403.345 127.779 Q 395.571 127.779 389.525 124.468 L 389.525 124.468 L 389.525 124.468 Q 383.479 121.157 380.12 115.015 L 380.12 115.015 L 380.12 115.015 Q 376.761 108.873 376.761 100.523 L 376.761 100.523 L 376.761 100.523 Q 376.761 92.174 380.12 85.984 L 380.12 85.984 L 380.12 85.984 Q 383.479 79.794 389.525 76.531 L 389.525 76.531 L 389.525 76.531 Q 395.571 73.268 403.345 73.268 L 403.345 73.268 L 403.345 73.268 Q 411.215 73.268 417.117 76.531 L 417.117 76.531 L 417.117 76.531 Q 423.019 79.794 426.234 85.504 L 426.234 85.504 L 426.234 85.504 Q 429.449 91.214 429.449 98.508 L 429.449 98.508 Z  M 415.821 97.164 L 415.821 97.164 Q 416.109 90.638 412.414 87.279 L 412.414 87.279 L 412.414 87.279 Q 408.719 83.92 403.345 83.92 L 403.345 83.92 L 403.345 83.92 Q 397.875 83.92 394.132 87.279 L 394.132 87.279 L 394.132 87.279 Q 390.389 90.638 390.005 97.164 L 390.005 97.164 L 415.821 97.164 Z  M 453.427 84.112 L 453.427 84.112 Q 456.402 79.026 461.297 76.099 L 461.297 76.099 L 461.297 76.099 Q 466.191 73.172 472.237 73.172 L 472.237 73.172 L 472.237 87.663 L 468.303 87.663 L 468.303 87.663 Q 453.427 87.663 453.427 101.483 L 453.427 101.483 L 453.427 127.107 L 439.895 127.107 L 439.895 73.939 L 453.427 73.939 L 453.427 84.112 Z  M 518.385 92.174 L 518.385 92.174 Q 524.527 93.421 528.222 97.98 L 528.222 97.98 L 528.222 97.98 Q 531.917 102.539 531.917 108.681 L 531.917 108.681 L 531.917 108.681 Q 531.917 117.222 526.206 122.165 L 526.206 122.165 L 526.206 122.165 Q 520.496 127.107 509.651 127.107 L 509.651 127.107 L 480.572 127.107 L 480.572 59.352 L 509.076 59.352 L 509.076 59.352 Q 519.344 59.352 524.863 63.862 L 524.863 63.862 L 524.863 63.862 Q 530.381 68.373 530.381 76.531 L 530.381 76.531 L 530.381 76.531 Q 530.381 82.865 527.07 86.895 L 527.07 86.895 L 527.07 86.895 Q 523.759 90.926 518.385 92.174 L 518.385 92.174 Z  M 494.104 70.197 L 494.104 87.759 L 506.292 87.759 L 506.292 87.759 Q 511.379 87.759 514.018 85.504 L 514.018 85.504 L 514.018 85.504 Q 516.657 83.249 516.657 79.026 L 516.657 79.026 L 516.657 79.026 Q 516.657 74.803 514.066 72.5 L 514.066 72.5 L 514.066 72.5 Q 511.475 70.197 506.1 70.197 L 506.1 70.197 L 494.104 70.197 Z  M 506.964 116.07 L 506.964 116.07 Q 512.339 116.07 515.218 113.719 L 515.218 113.719 L 515.218 113.719 Q 518.097 111.368 518.097 106.857 L 518.097 106.857 L 518.097 106.857 Q 518.097 102.347 515.17 99.899 L 515.17 99.899 L 515.17 99.899 Q 512.243 97.452 506.868 97.452 L 506.868 97.452 L 494.104 97.452 L 494.104 116.07 L 506.964 116.07 Z  M 540.731 58.68 L 540.731 58.68 Q 540.731 55.417 543.035 53.354 L 543.035 53.354 L 543.035 53.354 Q 545.338 51.29 549.081 51.29 L 549.081 51.29 L 549.081 51.29 Q 552.824 51.29 555.127 53.354 L 555.127 53.354 L 555.127 53.354 Q 557.43 55.417 557.43 58.68 L 557.43 58.68 L 557.43 58.68 Q 557.43 61.847 555.127 63.91 L 555.127 63.91 L 555.127 63.91 Q 552.824 65.974 549.081 65.974 L 549.081 65.974 L 549.081 65.974 Q 545.338 65.974 543.035 63.91 L 543.035 63.91 L 543.035 63.91 Q 540.731 61.847 540.731 58.68 L 540.731 58.68 Z  M 542.267 73.939 L 555.799 73.939 L 555.799 127.107 L 542.267 127.107 L 542.267 73.939 Z  M 592.061 115.495 L 597.339 115.495 L 597.339 127.107 L 590.238 127.107 L 590.238 127.107 Q 581.312 127.107 576.562 122.788 L 576.562 122.788 L 576.562 122.788 Q 571.811 118.47 571.811 108.393 L 571.811 108.393 L 571.811 85.36 L 564.422 85.36 L 564.422 73.939 L 571.811 73.939 L 571.811 60.791 L 585.343 60.791 L 585.343 73.939 L 597.243 73.939 L 597.243 85.36 L 585.343 85.36 L 585.343 108.585 L 585.343 108.585 Q 585.343 112.424 586.879 113.959 L 586.879 113.959 L 586.879 113.959 Q 588.414 115.495 592.061 115.495 L 592.061 115.495 Z " fill="rgb(255,255,255)"/><path d=" M 40.586 70.138 L 60.833 58.448 L 81.08 46.759 L 101.327 58.448 L 121.574 70.138 L 121.574 93.517 L 121.574 116.897 L 101.327 128.586 L 81.08 140.276 L 60.833 128.586 L 40.586 116.897 L 40.586 93.517 L 40.586 70.138 Z  M 0.092 46.759 L 40.586 23.379 L 81.08 0 L 121.574 23.379 L 162.068 46.759 L 162.068 93.517 L 162.068 140.276 L 121.574 163.655 L 81.08 187.035 L 40.586 163.655 L 0.092 140.276 L 0.092 93.517 L 0.092 46.759 Z  M 8.584 51.665 L 44.832 30.73 L 81.079 9.804 L 117.327 30.73 L 153.575 51.665 L 153.575 93.519 L 153.575 135.372 L 117.327 156.299 L 81.079 177.225 L 44.832 156.299 L 8.584 135.372 L 8.584 93.519 L 8.584 51.665 Z " fill-rule="evenodd" fill="rgb(255,113,113)"/><path d=" M 161.83 46.929 L 161.83 93.517 L 161.83 140.276 L 121.335 163.655 L 80.841 187.035 L 40.347 163.655 L 0 140.361 L 8.493 135.457 L 44.594 156.299 L 80.842 177.225 L 117.09 156.299 L 153.338 135.372 L 153.338 93.519 L 153.338 51.832 L 161.83 46.929 Z  M 121.335 70.308 L 121.335 93.517 L 121.335 116.897 L 101.088 128.586 L 80.841 140.276 L 60.594 128.586 L 40.494 116.982 L 121.335 70.308 Z " fill-rule="evenodd" fill="rgb(255,255,255)"/></g></svg>